<mxfile host="app.diagrams.net" agent="Mozilla/5.0 (X11; Ubuntu; Linux x86_64; rv:136.0) Gecko/20100101 Firefox/136.0" version="26.1.1">
  <diagram name="Page-1" id="e7e014a7-5840-1c2e-5031-d8a46d1fe8dd">
    <mxGraphModel dx="819" dy="451" grid="1" gridSize="10" guides="1" tooltips="1" connect="1" arrows="1" fold="1" page="1" pageScale="1" pageWidth="1169" pageHeight="826" background="none" math="0" shadow="0">
      <root>
        <mxCell id="0" />
        <mxCell id="1" parent="0" />
        <mxCell id="2" value="Пользователь" style="swimlane;whiteSpace=wrap;startSize=23;" parent="1" vertex="1">
          <mxGeometry x="164.5" y="128" width="280" height="812" as="geometry" />
        </mxCell>
        <mxCell id="5" value="" style="ellipse;shape=startState;fillColor=#000000;strokeColor=#ff0000;" parent="2" vertex="1">
          <mxGeometry x="45.5" y="40" width="30" height="30" as="geometry" />
        </mxCell>
        <mxCell id="6" value="" style="edgeStyle=elbowEdgeStyle;elbow=horizontal;verticalAlign=bottom;endArrow=open;endSize=8;strokeColor=#FF0000;endFill=1;rounded=0" parent="2" source="5" target="7" edge="1">
          <mxGeometry x="100" y="40" as="geometry">
            <mxPoint x="115" y="110" as="targetPoint" />
          </mxGeometry>
        </mxCell>
        <mxCell id="Www_5-nyKny7o5BCBHuy-46" style="edgeStyle=orthogonalEdgeStyle;rounded=0;orthogonalLoop=1;jettySize=auto;html=1;exitX=0.5;exitY=1;exitDx=0;exitDy=0;entryX=0.5;entryY=0;entryDx=0;entryDy=0;" edge="1" parent="2" source="7" target="Www_5-nyKny7o5BCBHuy-42">
          <mxGeometry relative="1" as="geometry" />
        </mxCell>
        <mxCell id="7" value="import DPro" style="" parent="2" vertex="1">
          <mxGeometry x="5.5" y="110" width="110" height="50" as="geometry" />
        </mxCell>
        <mxCell id="Www_5-nyKny7o5BCBHuy-42" value="Запрос требуемемой обработки" style="html=1;whiteSpace=wrap;" vertex="1" parent="2">
          <mxGeometry x="5.5" y="212" width="110" height="50" as="geometry" />
        </mxCell>
        <mxCell id="Www_5-nyKny7o5BCBHuy-63" value="Использование методов" style="html=1;whiteSpace=wrap;" vertex="1" parent="2">
          <mxGeometry x="5.5" y="332" width="110" height="50" as="geometry" />
        </mxCell>
        <mxCell id="Www_5-nyKny7o5BCBHuy-82" style="edgeStyle=orthogonalEdgeStyle;rounded=0;orthogonalLoop=1;jettySize=auto;html=1;exitX=0.5;exitY=1;exitDx=0;exitDy=0;exitPerimeter=0;entryX=0.5;entryY=0;entryDx=0;entryDy=0;" edge="1" parent="2" source="Www_5-nyKny7o5BCBHuy-70" target="Www_5-nyKny7o5BCBHuy-81">
          <mxGeometry relative="1" as="geometry" />
        </mxCell>
        <mxCell id="Www_5-nyKny7o5BCBHuy-84" value="Нет" style="edgeLabel;html=1;align=center;verticalAlign=middle;resizable=0;points=[];" vertex="1" connectable="0" parent="Www_5-nyKny7o5BCBHuy-82">
          <mxGeometry x="-0.931" relative="1" as="geometry">
            <mxPoint x="-19" y="-6" as="offset" />
          </mxGeometry>
        </mxCell>
        <mxCell id="Www_5-nyKny7o5BCBHuy-70" value="Использовать методы?" style="strokeWidth=2;html=1;shape=mxgraph.flowchart.decision;whiteSpace=wrap;" vertex="1" parent="2">
          <mxGeometry x="9.25" y="422" width="102.5" height="98" as="geometry" />
        </mxCell>
        <mxCell id="Www_5-nyKny7o5BCBHuy-72" style="edgeStyle=orthogonalEdgeStyle;rounded=0;orthogonalLoop=1;jettySize=auto;html=1;exitX=0.5;exitY=1;exitDx=0;exitDy=0;entryX=0.498;entryY=0.048;entryDx=0;entryDy=0;entryPerimeter=0;" edge="1" parent="2" source="Www_5-nyKny7o5BCBHuy-63" target="Www_5-nyKny7o5BCBHuy-70">
          <mxGeometry relative="1" as="geometry" />
        </mxCell>
        <mxCell id="Www_5-nyKny7o5BCBHuy-81" value="" style="ellipse;html=1;shape=endState;fillColor=#000000;strokeColor=#ff0000;" vertex="1" parent="2">
          <mxGeometry x="45.5" y="762" width="30" height="30" as="geometry" />
        </mxCell>
        <mxCell id="3" value="Интерфейс библиотеки" style="swimlane;whiteSpace=wrap" parent="1" vertex="1">
          <mxGeometry x="444.5" y="128" width="355.5" height="812" as="geometry" />
        </mxCell>
        <mxCell id="Www_5-nyKny7o5BCBHuy-57" value="Метод поиска" style="verticalAlign=top;align=left;spacingTop=8;spacingLeft=2;spacingRight=12;shape=cube;size=10;direction=south;fontStyle=4;html=1;whiteSpace=wrap;" vertex="1" parent="3">
          <mxGeometry x="123.25" y="200.5" width="104.5" height="73" as="geometry" />
        </mxCell>
        <mxCell id="Www_5-nyKny7o5BCBHuy-61" value="Формулировка ответа" style="html=1;whiteSpace=wrap;" vertex="1" parent="3">
          <mxGeometry x="123.25" y="342" width="110" height="50" as="geometry" />
        </mxCell>
        <mxCell id="Www_5-nyKny7o5BCBHuy-62" style="edgeStyle=orthogonalEdgeStyle;rounded=0;orthogonalLoop=1;jettySize=auto;html=1;exitX=0;exitY=0;exitDx=73;exitDy=57.25;exitPerimeter=0;entryX=0.43;entryY=0;entryDx=0;entryDy=0;entryPerimeter=0;" edge="1" parent="3" source="Www_5-nyKny7o5BCBHuy-57" target="Www_5-nyKny7o5BCBHuy-61">
          <mxGeometry relative="1" as="geometry" />
        </mxCell>
        <mxCell id="Www_5-nyKny7o5BCBHuy-66" value="Подходящие алгоритмы" style="edgeLabel;html=1;align=center;verticalAlign=middle;resizable=0;points=[];" vertex="1" connectable="0" parent="Www_5-nyKny7o5BCBHuy-62">
          <mxGeometry x="-0.0136" relative="1" as="geometry">
            <mxPoint as="offset" />
          </mxGeometry>
        </mxCell>
        <mxCell id="Www_5-nyKny7o5BCBHuy-76" value="Методы обработки" style="verticalAlign=top;align=left;spacingTop=8;spacingLeft=2;spacingRight=12;shape=cube;size=10;direction=south;fontStyle=4;html=1;whiteSpace=wrap;" vertex="1" parent="3">
          <mxGeometry x="85.5" y="422" width="180" height="120" as="geometry" />
        </mxCell>
        <mxCell id="Www_5-nyKny7o5BCBHuy-87" style="edgeStyle=orthogonalEdgeStyle;rounded=0;orthogonalLoop=1;jettySize=auto;html=1;exitX=1;exitY=0.5;exitDx=0;exitDy=0;exitPerimeter=0;entryX=0.5;entryY=0;entryDx=0;entryDy=0;" edge="1" parent="3" source="Www_5-nyKny7o5BCBHuy-79" target="Www_5-nyKny7o5BCBHuy-86">
          <mxGeometry relative="1" as="geometry" />
        </mxCell>
        <mxCell id="Www_5-nyKny7o5BCBHuy-88" value="Да" style="edgeLabel;html=1;align=center;verticalAlign=middle;resizable=0;points=[];" vertex="1" connectable="0" parent="Www_5-nyKny7o5BCBHuy-87">
          <mxGeometry x="-0.7731" y="2" relative="1" as="geometry">
            <mxPoint x="-9" y="-12" as="offset" />
          </mxGeometry>
        </mxCell>
        <mxCell id="Www_5-nyKny7o5BCBHuy-90" style="edgeStyle=orthogonalEdgeStyle;rounded=0;orthogonalLoop=1;jettySize=auto;html=1;exitX=0;exitY=0.5;exitDx=0;exitDy=0;exitPerimeter=0;" edge="1" parent="3" source="Www_5-nyKny7o5BCBHuy-79" target="Www_5-nyKny7o5BCBHuy-89">
          <mxGeometry relative="1" as="geometry" />
        </mxCell>
        <mxCell id="Www_5-nyKny7o5BCBHuy-91" value="Нет" style="edgeLabel;html=1;align=center;verticalAlign=middle;resizable=0;points=[];" vertex="1" connectable="0" parent="Www_5-nyKny7o5BCBHuy-90">
          <mxGeometry x="-0.5222" y="1" relative="1" as="geometry">
            <mxPoint x="18" y="-15" as="offset" />
          </mxGeometry>
        </mxCell>
        <mxCell id="Www_5-nyKny7o5BCBHuy-79" value="&lt;div&gt;Параметр&amp;nbsp;&lt;/div&gt;&lt;div&gt;inplace истина?&lt;/div&gt;" style="strokeWidth=2;html=1;shape=mxgraph.flowchart.decision;whiteSpace=wrap;" vertex="1" parent="3">
          <mxGeometry x="118.25" y="572" width="109.5" height="108" as="geometry" />
        </mxCell>
        <mxCell id="Www_5-nyKny7o5BCBHuy-80" style="edgeStyle=orthogonalEdgeStyle;rounded=0;orthogonalLoop=1;jettySize=auto;html=1;exitX=0;exitY=0;exitDx=120;exitDy=95;exitPerimeter=0;entryX=0.5;entryY=0;entryDx=0;entryDy=0;entryPerimeter=0;" edge="1" parent="3" source="Www_5-nyKny7o5BCBHuy-76" target="Www_5-nyKny7o5BCBHuy-79">
          <mxGeometry relative="1" as="geometry" />
        </mxCell>
        <mxCell id="Www_5-nyKny7o5BCBHuy-86" value="Перезаписать исходный файл" style="html=1;whiteSpace=wrap;" vertex="1" parent="3">
          <mxGeometry x="233.25" y="698" width="110" height="50" as="geometry" />
        </mxCell>
        <mxCell id="Www_5-nyKny7o5BCBHuy-89" value="Вернуть ссылку на обработанный объект" style="html=1;whiteSpace=wrap;" vertex="1" parent="3">
          <mxGeometry x="8.25" y="698" width="110" height="50" as="geometry" />
        </mxCell>
        <mxCell id="Www_5-nyKny7o5BCBHuy-58" style="edgeStyle=orthogonalEdgeStyle;rounded=0;orthogonalLoop=1;jettySize=auto;html=1;exitX=1;exitY=0.5;exitDx=0;exitDy=0;" edge="1" parent="1" source="Www_5-nyKny7o5BCBHuy-42" target="Www_5-nyKny7o5BCBHuy-57">
          <mxGeometry relative="1" as="geometry" />
        </mxCell>
        <mxCell id="Www_5-nyKny7o5BCBHuy-65" value="файл с данными" style="edgeLabel;html=1;align=center;verticalAlign=middle;resizable=0;points=[];" vertex="1" connectable="0" parent="Www_5-nyKny7o5BCBHuy-58">
          <mxGeometry x="-0.4029" y="1" relative="1" as="geometry">
            <mxPoint x="14" y="16" as="offset" />
          </mxGeometry>
        </mxCell>
        <mxCell id="Www_5-nyKny7o5BCBHuy-64" style="edgeStyle=orthogonalEdgeStyle;rounded=0;orthogonalLoop=1;jettySize=auto;html=1;exitX=0;exitY=0.5;exitDx=0;exitDy=0;entryX=0.959;entryY=0.706;entryDx=0;entryDy=0;entryPerimeter=0;" edge="1" parent="1" source="Www_5-nyKny7o5BCBHuy-61" target="Www_5-nyKny7o5BCBHuy-63">
          <mxGeometry relative="1" as="geometry" />
        </mxCell>
        <mxCell id="Www_5-nyKny7o5BCBHuy-67" value="инструкции по обработке датасета" style="edgeLabel;html=1;align=center;verticalAlign=middle;resizable=0;points=[];" vertex="1" connectable="0" parent="Www_5-nyKny7o5BCBHuy-64">
          <mxGeometry x="0.3953" y="2" relative="1" as="geometry">
            <mxPoint x="51" y="13" as="offset" />
          </mxGeometry>
        </mxCell>
        <mxCell id="Www_5-nyKny7o5BCBHuy-77" style="edgeStyle=orthogonalEdgeStyle;rounded=0;orthogonalLoop=1;jettySize=auto;html=1;exitX=1;exitY=0.5;exitDx=0;exitDy=0;exitPerimeter=0;entryX=0.411;entryY=1.001;entryDx=0;entryDy=0;entryPerimeter=0;" edge="1" parent="1" source="Www_5-nyKny7o5BCBHuy-70" target="Www_5-nyKny7o5BCBHuy-76">
          <mxGeometry relative="1" as="geometry" />
        </mxCell>
        <mxCell id="Www_5-nyKny7o5BCBHuy-78" value="&lt;div&gt;Методы с переданными&amp;nbsp;&lt;/div&gt;&lt;div&gt;параметрами&lt;/div&gt;" style="edgeLabel;html=1;align=center;verticalAlign=middle;resizable=0;points=[];" vertex="1" connectable="0" parent="Www_5-nyKny7o5BCBHuy-77">
          <mxGeometry x="-0.3544" y="-2" relative="1" as="geometry">
            <mxPoint x="24" y="19" as="offset" />
          </mxGeometry>
        </mxCell>
        <mxCell id="Www_5-nyKny7o5BCBHuy-83" value="Да" style="edgeLabel;html=1;align=center;verticalAlign=middle;resizable=0;points=[];" vertex="1" connectable="0" parent="Www_5-nyKny7o5BCBHuy-77">
          <mxGeometry x="-0.4477" relative="1" as="geometry">
            <mxPoint x="-38" y="-9" as="offset" />
          </mxGeometry>
        </mxCell>
        <mxCell id="Www_5-nyKny7o5BCBHuy-92" style="edgeStyle=orthogonalEdgeStyle;rounded=0;orthogonalLoop=1;jettySize=auto;html=1;exitX=0.5;exitY=1;exitDx=0;exitDy=0;entryX=1;entryY=0.5;entryDx=0;entryDy=0;" edge="1" parent="1" source="Www_5-nyKny7o5BCBHuy-89" target="Www_5-nyKny7o5BCBHuy-81">
          <mxGeometry relative="1" as="geometry" />
        </mxCell>
        <mxCell id="Www_5-nyKny7o5BCBHuy-93" style="edgeStyle=orthogonalEdgeStyle;rounded=0;orthogonalLoop=1;jettySize=auto;html=1;exitX=0.5;exitY=1;exitDx=0;exitDy=0;entryX=1;entryY=0.5;entryDx=0;entryDy=0;" edge="1" parent="1" source="Www_5-nyKny7o5BCBHuy-86" target="Www_5-nyKny7o5BCBHuy-81">
          <mxGeometry relative="1" as="geometry" />
        </mxCell>
      </root>
    </mxGraphModel>
  </diagram>
</mxfile>
